HIERARCHY
ROOT Hips
{
	OFFSET 0.000000 97.167313 0.000000
	CHANNELS 6 Xposition Yposition Zposition Xrotation Yrotation Zrotation
	JOINT Spine
	{
		OFFSET 0.000000 13.784798 0.064400
		CHANNELS 3 Xrotation Yrotation Zrotation
		JOINT Spine1
		{
			OFFSET 0.000000 12.037903 0.404700
			CHANNELS 3 Xrotation Yrotation Zrotation
			JOINT Spine2
			{
				OFFSET 0.000000 17.795601 0.420200
				CHANNELS 3 Xrotation Yrotation Zrotation
				JOINT Neck
				{
					OFFSET 0.000000 39.131302 11.954600
					CHANNELS 3 Xrotation Yrotation Zrotation
					JOINT Head
					{
						OFFSET 0.000000 14.456192 15.627699
						CHANNELS 3 Xrotation Yrotation Zrotation
						JOINT HeadTop_End
						{
							OFFSET 0.000000 15.703506 7.603401
							CHANNELS 3 Xrotation Yrotation Zrotation
							End Site
							{
								OFFSET 0.000000 17.447403 0.000000
							}
						}
					}
				}
				JOINT LeftShoulder
				{
					OFFSET 17.399500 24.608795 1.168800
					CHANNELS 3 Xrotation Yrotation Zrotation
					JOINT LeftArm
					{
						OFFSET 18.980635 5.765305 1.818600
						CHANNELS 3 Xrotation Yrotation Zrotation
						JOINT LeftForeArm
						{
							OFFSET 49.290169 0.000000 0.000000
							CHANNELS 3 Xrotation Yrotation Zrotation
							JOINT LeftHand
							{
								OFFSET 31.562012 0.000000 0.000000
								CHANNELS 3 Xrotation Yrotation Zrotation
								JOINT LeftHandThumb1
								{
									OFFSET 6.133995 -4.388519 7.076070
									CHANNELS 3 Xrotation Yrotation Zrotation
									JOINT LeftHandThumb2
									{
										OFFSET 6.037666 -3.485840 3.485847
										CHANNELS 3 Xrotation Yrotation Zrotation
										JOINT LeftHandThumb3
										{
											OFFSET 6.496506 -3.750763 3.750761
											CHANNELS 3 Xrotation Yrotation Zrotation
											JOINT LeftHandThumb4
											{
												OFFSET 5.616882 -3.242905 3.242910
												CHANNELS 3 Xrotation Yrotation Zrotation
												End Site
												{
													OFFSET -1.254608 7.132141 0.375429
												}
											}
										}
									}
								}
								JOINT LeftHandPinky1
								{
									OFFSET 18.920792 -0.453171 -11.426712
									CHANNELS 3 Xrotation Yrotation Zrotation
									JOINT LeftHandPinky2
									{
										OFFSET 4.919586 0.000000 0.000000
										CHANNELS 3 Xrotation Yrotation Zrotation
										JOINT LeftHandPinky3
										{
											OFFSET 5.233047 0.000000 0.000000
											CHANNELS 3 Xrotation Yrotation Zrotation
											JOINT LeftHandPinky4
											{
												OFFSET 5.571716 0.000000 0.000000
												CHANNELS 3 Xrotation Yrotation Zrotation
												End Site
												{
													OFFSET -3.459808 4.342407 -0.466164
												}
											}
										}
									}
								}
								JOINT LeftHandRing1
								{
									OFFSET 22.726120 -0.094986 -6.500475
									CHANNELS 3 Xrotation Yrotation Zrotation
									JOINT LeftHandRing2
									{
										OFFSET 6.408615 0.000000 0.000000
										CHANNELS 3 Xrotation Yrotation Zrotation
										JOINT LeftHandRing3
										{
											OFFSET 6.150223 0.000000 0.000000
											CHANNELS 3 Xrotation Yrotation Zrotation
											JOINT LeftHandRing4
											{
												OFFSET 6.145386 0.000000 0.000000
												CHANNELS 3 Xrotation Yrotation Zrotation
												End Site
												{
													OFFSET -3.671402 4.923981 -0.202372
												}
											}
										}
									}
								}
								JOINT LeftHandMiddle1
								{
									OFFSET 23.373947 0.000000 0.000001
									CHANNELS 3 Xrotation Yrotation Zrotation
									JOINT LeftHandMiddle2
									{
										OFFSET 6.996567 0.000000 0.000000
										CHANNELS 3 Xrotation Yrotation Zrotation
										JOINT LeftHandMiddle3
										{
											OFFSET 7.015945 0.000000 0.000000
											CHANNELS 3 Xrotation Yrotation Zrotation
											JOINT LeftHandMiddle4
											{
												OFFSET 7.721573 0.000000 0.000000
												CHANNELS 3 Xrotation Yrotation Zrotation
												End Site
												{
													OFFSET -4.651108 6.158463 0.251582
												}
											}
										}
									}
								}
								JOINT LeftHandIndex1
								{
									OFFSET 21.310577 -0.490082 6.209344
									CHANNELS 3 Xrotation Yrotation Zrotation
									JOINT LeftHandIndex2
									{
										OFFSET 7.536453 0.000000 0.000000
										CHANNELS 3 Xrotation Yrotation Zrotation
										JOINT LeftHandIndex3
										{
											OFFSET 7.512344 0.000000 0.000000
											CHANNELS 3 Xrotation Yrotation Zrotation
											JOINT LeftHandIndex4
											{
												OFFSET 10.212402 0.000000 0.000001
												CHANNELS 3 Xrotation Yrotation Zrotation
												End Site
												{
													OFFSET -5.180801 8.690506 1.388433
												}
											}
										}
									}
								}
							}
						}
					}
				}
				JOINT RightShoulder
				{
					OFFSET -17.399500 24.608795 1.168800
					CHANNELS 3 Xrotation Yrotation Zrotation
					JOINT RightArm
					{
						OFFSET -18.980635 5.765305 1.818600
						CHANNELS 3 Xrotation Yrotation Zrotation
						JOINT RightForeArm
						{
							OFFSET -49.290169 0.000000 0.000000
							CHANNELS 3 Xrotation Yrotation Zrotation
							JOINT RightHand
							{
								OFFSET -31.562012 0.000000 0.000000
								CHANNELS 3 Xrotation Yrotation Zrotation
								JOINT RightHandThumb1
								{
									OFFSET -6.133995 -4.388519 7.076070
									CHANNELS 3 Xrotation Yrotation Zrotation
									JOINT RightHandThumb2
									{
										OFFSET -6.037666 -3.485840 3.485847
										CHANNELS 3 Xrotation Yrotation Zrotation
										JOINT RightHandThumb3
										{
											OFFSET -6.496506 -3.750763 3.750761
											CHANNELS 3 Xrotation Yrotation Zrotation
											JOINT RightHandThumb4
											{
												OFFSET -5.616882 -3.242905 3.242910
												CHANNELS 3 Xrotation Yrotation Zrotation
												End Site
												{
													OFFSET 1.254608 7.132141 0.375429
												}
											}
										}
									}
								}
								JOINT RightHandIndex1
								{
									OFFSET -21.310577 -0.490082 6.209344
									CHANNELS 3 Xrotation Yrotation Zrotation
									JOINT RightHandIndex2
									{
										OFFSET -7.536453 0.000000 0.000000
										CHANNELS 3 Xrotation Yrotation Zrotation
										JOINT RightHandIndex3
										{
											OFFSET -7.512344 0.000000 0.000000
											CHANNELS 3 Xrotation Yrotation Zrotation
											JOINT RightHandIndex4
											{
												OFFSET -10.212402 0.000000 0.000001
												CHANNELS 3 Xrotation Yrotation Zrotation
												End Site
												{
													OFFSET 5.180801 8.690506 1.388433
												}
											}
										}
									}
								}
								JOINT RightHandMiddle1
								{
									OFFSET -23.373947 0.000000 0.000001
									CHANNELS 3 Xrotation Yrotation Zrotation
									JOINT RightHandMiddle2
									{
										OFFSET -6.996567 0.000000 0.000000
										CHANNELS 3 Xrotation Yrotation Zrotation
										JOINT RightHandMiddle3
										{
											OFFSET -7.015945 0.000000 0.000000
											CHANNELS 3 Xrotation Yrotation Zrotation
											JOINT RightHandMiddle4
											{
												OFFSET -7.721573 0.000000 0.000000
												CHANNELS 3 Xrotation Yrotation Zrotation
												End Site
												{
													OFFSET 4.651108 6.158463 0.251582
												}
											}
										}
									}
								}
								JOINT RightHandRing1
								{
									OFFSET -22.726120 -0.094986 -6.500475
									CHANNELS 3 Xrotation Yrotation Zrotation
									JOINT RightHandRing2
									{
										OFFSET -6.408615 0.000000 0.000000
										CHANNELS 3 Xrotation Yrotation Zrotation
										JOINT RightHandRing3
										{
											OFFSET -6.150223 0.000000 0.000000
											CHANNELS 3 Xrotation Yrotation Zrotation
											JOINT RightHandRing4
											{
												OFFSET -6.145386 0.000000 0.000000
												CHANNELS 3 Xrotation Yrotation Zrotation
												End Site
												{
													OFFSET 3.671402 4.923981 -0.202372
												}
											}
										}
									}
								}
								JOINT RightHandPinky1
								{
									OFFSET -18.920792 -0.453171 -11.426712
									CHANNELS 3 Xrotation Yrotation Zrotation
									JOINT RightHandPinky2
									{
										OFFSET -4.919586 0.000000 0.000000
										CHANNELS 3 Xrotation Yrotation Zrotation
										JOINT RightHandPinky3
										{
											OFFSET -5.233047 0.000000 0.000000
											CHANNELS 3 Xrotation Yrotation Zrotation
											JOINT RightHandPinky4
											{
												OFFSET -5.571716 0.000000 0.000000
												CHANNELS 3 Xrotation Yrotation Zrotation
												End Site
												{
													OFFSET 3.459808 4.342407 -0.466164
												}
											}
										}
									}
								}
							}
						}
					}
				}
			}
		}
	}
	JOINT LeftUpLeg
	{
		OFFSET 19.899099 -7.885101 -3.429500
		CHANNELS 3 Xrotation Yrotation Zrotation
		JOINT LeftLeg
		{
			OFFSET 1.745560 -36.997807 10.304700
			CHANNELS 3 Xrotation Yrotation Zrotation
			JOINT LeftFoot
			{
				OFFSET -1.745558 -29.803308 -13.615400
				CHANNELS 3 Xrotation Yrotation Zrotation
				JOINT LeftToeBase
				{
					OFFSET 1.181900 -18.539904 15.226099
					CHANNELS 3 Xrotation Yrotation Zrotation
					JOINT LeftToe_End
					{
						OFFSET -0.863701 1.402801 16.534700
						CHANNELS 3 Xrotation Yrotation Zrotation
						End Site
						{
							OFFSET 0.000000 16.616566 0.000000
						}
					}
				}
			}
		}
	}
	JOINT RightUpLeg
	{
		OFFSET -19.899099 -7.885101 -3.429500
		CHANNELS 3 Xrotation Yrotation Zrotation
		JOINT RightLeg
		{
			OFFSET -1.745560 -36.997807 10.304700
			CHANNELS 3 Xrotation Yrotation Zrotation
			JOINT RightFoot
			{
				OFFSET 1.745558 -29.803308 -13.615400
				CHANNELS 3 Xrotation Yrotation Zrotation
				JOINT RightToeBase
				{
					OFFSET -1.181900 -18.539904 15.226099
					CHANNELS 3 Xrotation Yrotation Zrotation
					JOINT RightToe_End
					{
						OFFSET 0.863701 1.402801 16.534700
						CHANNELS 3 Xrotation Yrotation Zrotation
						End Site
						{
							OFFSET 0.000000 16.616566 0.000000
						}
					}
				}
			}
		}
	}
}
MOTION
Frames: 4
Frame Time: 0.033333
0.893776 94.522087 3.275912 -3.752498 -5.208584 -3.437016 3.302394 1.509511 2.406338 1.146035 0.329155 1.552970 1.123712 0.356192 1.550934 5.622648 -0.077170 0.463896 -7.551131 1.374726 -0.084352 -0.000000 -0.000000 0.000000 1.046097 -17.446007 -12.316923 3.915818 -19.989409 -69.767596 0.000000 -1.453265 -0.000025 -33.228310 -1.359639 -6.191108 -0.666102 2.158567 4.837358 11.859672 25.414852 17.056651 -13.811988 3.541878 9.030669 0.000001 -0.000001 -0.000002 0.968540 5.534951 -27.130772 0.268812 1.755890 -17.406402 0.241901 1.667662 -16.505548 0.000000 0.000000 -0.000002 0.137960 3.644586 -21.134849 0.386574 2.094654 -20.910438 0.283126 1.800884 -17.867575 0.000000 0.000000 0.000003 -0.077462 2.661822 -15.698688 0.268775 1.755776 -17.405226 0.300517 1.853953 -18.413087 0.000001 -0.000001 0.000008 -0.407828 -0.912727 -7.567488 0.268849 1.756001 -17.407453 0.057693 0.821048 -8.038976 -0.000001 -0.000000 -0.000001 1.189530 15.344122 14.707055 13.162785 27.550890 58.780977 0.000004 6.689855 0.000003 -20.174757 -0.523604 6.792848 -1.664528 -0.169110 -4.216967 12.708056 -29.838163 -16.127685 -15.551979 -3.555831 -12.703299 0.000002 -0.000002 0.000002 -0.390919 1.215753 6.807054 0.214627 -1.398896 17.443963 0.046098 -0.654335 8.059281 -0.000002 -0.000001 0.000004 -0.135887 -2.206390 14.998759 0.214471 -1.398411 17.437690 0.239791 -1.476583 18.447100 -0.000002 0.000003 -0.000006 0.031300 -3.078199 20.463766 0.308443 -1.668284 20.948513 0.225824 -1.434047 17.897088 -0.000001 0.000002 0.000000 0.790101 -4.865168 26.475285 0.214429 -1.398315 17.436472 0.192935 -1.327915 16.532290 0.000002 -0.000001 0.000000 -10.545931 14.477336 12.158665 14.453478 1.066233 3.777792 -0.951275 1.455460 -8.993256 -4.933146 0.000009 0.000001 0.000001 -0.000000 0.000000 5.095777 -9.900029 1.128017 6.469515 -8.325170 -2.441665 -6.571387 -3.429930 5.609699 -7.273481 0.000011 0.000001 -0.000001 -0.000001 -0.000000 
0.962361 93.489059 3.280214 -3.091670 -5.820315 -3.365559 3.184779 1.854279 2.769098 0.993404 0.406143 1.470091 0.973551 0.429666 1.468429 5.181939 -0.113830 0.323691 -7.779907 0.787299 0.032938 -0.000000 0.000000 0.000000 0.716846 -16.716224 -14.104675 3.337570 -16.125798 -67.733770 0.000001 -3.118563 -0.000010 -27.226661 -3.716831 -5.836841 -0.045988 1.840035 4.778358 11.342023 24.075946 15.660550 -13.415606 2.246791 9.365131 0.000001 -0.000000 -0.000002 1.472750 6.542193 -26.649976 0.299222 1.850053 -18.372929 0.271836 1.765502 -17.504793 -0.000001 0.000001 -0.000000 0.234682 3.893513 -21.084912 0.397407 2.122771 -21.204881 0.288326 1.816931 -18.032389 0.000001 0.000000 0.000003 -0.147651 2.405210 -15.651209 0.298364 1.847480 -18.346428 0.269109 1.756854 -17.416241 0.000000 -0.000001 0.000008 -0.394399 -1.115294 -7.043872 0.315811 1.899247 -18.880053 0.098756 1.072284 -10.524059 0.000000 0.000003 0.000001 0.976253 15.654536 15.689617 9.738619 23.257930 59.277627 -0.000009 6.079675 0.000010 -15.332216 0.079039 6.477194 -0.864918 -0.146391 -3.352794 12.405877 -28.257451 -14.329730 -14.807773 -2.336827 -12.338686 -0.000001 0.000002 0.000007 -0.422533 1.368585 7.000219 0.274665 -1.577252 19.755740 0.092996 -0.927010 11.456795 -0.000002 -0.000001 -0.000001 -0.217768 -1.942918 15.402384 0.221063 -1.419230 17.705954 0.194899 -1.334529 16.616947 0.000001 0.000004 -0.000009 0.126858 -3.314830 19.814821 0.288628 -1.615579 20.256697 0.206518 -1.372834 17.108753 -0.000001 0.000001 -0.000003 1.292934 -5.963396 25.135378 0.224056 -1.428554 17.826239 0.202679 -1.360319 16.947924 0.000001 -0.000002 0.000005 -12.569181 14.021142 12.618214 17.852233 1.633192 3.722749 -2.873663 1.708733 -9.205936 -5.347960 -0.000004 0.000001 0.000000 -0.000000 0.000000 2.413116 -9.817062 0.769440 10.563572 -7.973883 -2.603136 -8.675129 -3.478303 5.956524 -7.098690 0.000003 0.000001 -0.000001 0.000001 0.000000 
1.204756 92.617302 3.035255 -2.306150 -6.805285 -3.311081 3.701679 2.557616 3.502447 0.813070 0.559048 1.387040 0.796621 0.576973 1.386309 4.511866 -0.156124 0.075797 -8.756935 0.173535 0.061217 -0.000000 0.000000 0.000000 0.369520 -15.976437 -16.205049 3.068842 -11.526371 -64.767638 0.000002 -7.238544 -0.000011 -20.724092 -5.394564 -4.999626 0.652097 1.475441 4.716677 10.768391 22.579306 14.068253 -12.973249 0.794584 9.767105 -0.000001 -0.000000 -0.000003 2.022847 7.687405 -26.112015 0.335443 1.955668 -19.463695 0.307661 1.875254 -18.632526 -0.000002 0.000004 0.000003 0.342394 4.171788 -21.025231 0.409807 2.154429 -21.537127 0.294256 1.835029 -18.218380 0.000001 0.000000 0.000005 -0.226189 2.114461 -15.589171 0.333567 1.950360 -19.408655 0.235706 1.646642 -16.291543 0.000001 -0.000001 0.000001 -0.374080 -1.345330 -6.433896 0.373227 2.059395 -20.542031 0.158131 1.353346 -13.328737 0.000001 0.000003 0.000001 0.733776 15.990195 16.659928 5.224957 18.685941 59.003532 0.000006 4.976827 -0.000003 -9.834479 -1.904786 6.026934 -0.285666 -0.438003 -2.000255 12.331775 -26.439884 -11.681456 -14.033446 -0.191771 -11.356541 -0.000000 0.000002 0.000003 -0.504568 1.416432 8.007155 0.354913 -1.784875 22.490578 0.168725 -1.243470 15.453400 0.000001 0.000000 0.000001 -0.313864 -1.673442 16.042723 0.205551 -1.369689 17.068272 0.129328 -1.091054 13.520171 0.000001 0.000001 -0.000004 0.245268 -3.628259 18.204782 0.239113 -1.474555 18.420639 0.163074 -1.222827 15.190508 -0.000001 -0.000000 -0.000005 1.753559 -7.317713 22.377307 0.211659 -1.389437 17.322159 0.191545 -1.323206 16.472015 0.000003 -0.000003 0.000000 -14.475227 13.608669 12.945788 20.628095 2.571429 3.646730 -4.379117 1.942747 -9.366066 -5.786318 -0.000002 0.000000 -0.000000 0.000000 0.000000 -0.349048 -9.625754 0.384293 13.829066 -7.294096 -2.652702 -10.021224 -3.516390 6.095966 -6.749157 0.000002 -0.000001 -0.000000 0.000001 -0.000000 
1.606885 91.862709 2.538787 -1.015935 -8.114331 -2.723046 4.828380 3.098041 4.235907 0.667420 0.649990 1.255658 0.654493 0.660974 1.256124 3.604631 -0.136072 -0.284163 -11.664543 0.136494 -0.250692 -0.000000 -0.000000 0.000000 0.086860 -15.326840 -17.985888 3.616111 -7.459672 -61.864493 0.000008 -14.326134 -0.000019 -14.005999 -7.105511 -3.397883 1.393634 1.081244 4.656944 10.169263 21.001676 12.353695 -12.506876 -0.740845 10.223537 0.000001 -0.000002 0.000002 2.586640 8.916873 -25.543765 0.376230 2.067388 -20.625517 0.348178 1.991350 -19.833763 0.000003 0.000002 0.000001 0.456099 4.466954 -20.960174 0.423206 2.188074 -21.890971 0.300628 1.854281 -18.416444 0.000001 -0.000000 0.000005 -0.308948 1.804029 -15.518975 0.373147 2.059208 -20.540189 0.202528 1.528569 -15.093805 0.000002 0.000000 0.000004 -0.347013 -1.590546 -5.774078 0.439453 2.228038 -22.312609 0.236422 1.649089 -16.316473 -0.000000 0.000001 0.000001 0.456818 16.712524 17.266158 1.745282 14.844547 58.368809 0.000003 6.241453 0.000022 -2.255669 -2.426891 5.130552 -0.977245 -0.718262 -1.849537 12.174793 -24.374000 -8.979775 -13.265529 2.367252 -10.343326 -0.000001 0.000001 -0.000000 -0.564812 1.495915 8.636516 0.383575 -1.852545 23.393569 0.218542 -1.411290 17.603588 -0.000004 0.000002 0.000002 -0.407531 -1.303957 15.771300 0.180453 -1.285141 15.985061 0.071369 -0.813085 10.033028 -0.000002 0.000001 -0.000011 0.299010 -3.812916 15.907466 0.187507 -1.309523 16.296777 0.118824 -1.046388 12.956612 -0.000002 0.000002 0.000000 1.914455 -8.476150 18.811403 0.182713 -1.292993 16.085439 0.164898 -1.229546 15.276025 0.000002 -0.000000 0.000002 -16.435826 13.327745 12.552563 22.440715 3.897618 3.558200 -5.222039 2.157990 -9.399250 -6.241151 -0.000000 -0.000003 -0.000000 -0.000001 0.000000 -4.174397 -9.320140 -0.607653 17.072934 -6.392275 -2.667579 -10.878829 -3.493995 6.175084 -6.487141 -0.000004 0.000002 0.000000 0.000002 0.000000 
